<svg width="189" height="163" viewBox="0 0 181 163" fill="none" xmlns="http://www.w3.org/2000/svg">
<path d="M13.0334 117.603C5.45595 122.133 0.667106 116.912 -2.84622 109.896C-7.8153 99.9712 -5.1669 75.5318 -0.035417 67.1975C4.674 59.5484 11.5605 56.1916 17.4837 59.8971" fill="white"/>
<path d="M13.0334 117.603C5.45595 122.133 0.667106 116.912 -2.84622 109.896C-7.8153 99.9712 -5.1669 75.5318 -0.035417 67.1975C4.674 59.5484 11.5605 56.1916 17.4837 59.8971" stroke="black" stroke-width="4.99999" stroke-linecap="round" stroke-linejoin="round"/>
<path d="M63.5353 3.40759C53.7042 -1.65316 47.45 15.3687 43.8478 34.054C42.4489 41.3095 17.8884 55.4058 11.9138 72.3466C8.02643 83.3679 6.89822 108.412 13.3265 117.287C24.3336 132.482 38.6153 140.234 56.3183 143.825C62.5934 145.098 69.7692 145.465 75.6393 145.154C94.9157 144.132 141.582 161.611 146.53 160.333C160.278 156.786 152.362 140.837 143.567 137.457C139.307 135.819 109.466 120.133 115.203 120.086C129.294 119.972 146.269 121.53 162.214 123.918C186.076 127.491 180.314 94.0916 157.937 90.9754C147.454 89.5153 138.874 87.0643 115.403 84.3551C128.084 80.5806 146.305 74.2152 158.884 72.1291C179.625 68.6886 167.439 38.8847 142.167 43.624C124.957 46.8518 94.5831 56.0594 64.7351 54.3506C74.4996 42.8232 93.1906 18.6717 63.538 3.40671L63.5353 3.40759Z" fill="white" stroke="black" stroke-width="4.99999" stroke-linecap="round" stroke-linejoin="round"/>
<path d="M115.941 81.5978C100.325 85.2154 93.1374 90.644 89.4837 92.6566C99.2131 90.1217 101.613 89.22 112.197 87.3003C113.991 86.9748 116.137 86.8917 118.753 87.2079L115.941 81.5978Z" fill="black"/>
<path d="M115.132 117.589C105.734 117.672 94.4209 120.027 87.3433 123.493C92.473 123.372 101.287 123.086 109.08 122.749C111.194 122.658 113.104 123.093 115.553 124.844C114.905 122.467 115.117 120.025 115.132 117.589Z" fill="black"/>
<path d="M22.4834 105.576C34.3594 110.638 37.7906 110.59 43.8604 112.138" stroke="black" stroke-width="4.99999" stroke-linecap="round" stroke-linejoin="round"/>
<path d="M21.7115 94.0193C35.8218 96.2122 42.813 95.9366 52.3447 96.5416" stroke="black" stroke-width="4.99999" stroke-linecap="round" stroke-linejoin="round"/>
<path d="M21.2033 80.2032C31.0269 80.3991 35.6789 79.5784 41.9333 79.0728" stroke="black" stroke-width="4.99999" stroke-linecap="round" stroke-linejoin="round"/>
</svg>
