<svg width="189" height="163" viewBox="0 0 189 163" fill="none" xmlns="http://www.w3.org/2000/svg">
<path d="M167.626 44.8025C175.159 40.1988 179.999 45.3725 183.581 52.353C188.648 62.2285 186.24 86.6928 181.191 95.0772C176.557 102.772 169.704 106.197 163.744 102.55" fill="white"/>
<path d="M167.626 44.8025C175.159 40.1988 179.999 45.3725 183.581 52.353C188.648 62.2285 186.24 86.6928 181.191 95.0772C176.557 102.772 169.704 106.197 163.744 102.55" stroke="black" stroke-width="4.99999" stroke-linecap="round" stroke-linejoin="round"/>
<path d="M118.251 159.489C128.131 164.453 134.217 147.371 137.636 128.651C138.963 121.382 163.384 107.045 169.191 90.0459C172.97 78.9869 173.852 53.933 167.337 45.1219C156.18 30.0357 141.823 22.424 124.086 19.0075C117.798 17.7963 110.619 17.4999 104.753 17.869C85.4871 19.0811 38.6515 2.06186 33.7163 3.38813C20.0034 7.07081 28.0762 22.9411 36.9037 26.2345C41.1794 27.8297 71.1733 43.2216 65.4378 43.3246C51.3484 43.578 34.3588 42.1864 18.3905 39.9557C-5.50472 36.6177 0.585661 69.9589 22.9919 72.8548C33.4885 74.2116 42.0928 76.5781 65.5886 79.0563C52.9459 82.9554 34.7883 89.4997 22.2307 91.7094C1.52376 95.3539 14.0027 125.036 39.227 120.049C56.4049 116.652 86.6863 107.146 116.55 108.561C106.899 120.184 88.4465 144.518 118.248 159.49L118.251 159.489Z" fill="white" stroke="black" stroke-width="4.99999" stroke-linecap="round" stroke-linejoin="round"/>
<path d="M65.0785 81.8186C80.6577 78.0477 87.7917 72.5486 91.4253 70.5001C81.7213 73.1306 79.3302 74.0558 68.7661 76.0796C66.9751 76.4227 64.8299 76.5269 62.2111 76.2365L65.0785 81.8186Z" fill="black"/>
<path d="M65.5333 45.8215C74.93 45.6461 86.2191 43.1792 93.2622 39.6438C88.134 39.8158 79.3236 40.188 71.5341 40.6019C69.4212 40.7141 67.5072 40.2979 65.0406 38.5706C65.712 40.941 65.5236 43.3848 65.5333 45.8215Z" fill="black"/>
<path d="M158.295 56.9223C146.37 51.9772 142.94 52.0593 136.855 50.571" stroke="black" stroke-width="4.99999" stroke-linecap="round" stroke-linejoin="round"/>
<path d="M159.181 68.4707C145.05 66.4167 138.062 66.7611 128.524 66.2499" stroke="black" stroke-width="4.99999" stroke-linecap="round" stroke-linejoin="round"/>
<path d="M159.825 82.2811C150 82.1819 145.356 83.0483 139.107 83.6154" stroke="black" stroke-width="4.99999" stroke-linecap="round" stroke-linejoin="round"/>
</svg>
