<svg width="189" height="163" viewBox="0 0 136 117" fill="none" xmlns="http://www.w3.org/2000/svg">
<path d="M17.9484 30.4565C10.3892 25.9508 5.64504 31.187 2.15161 38.2131C-2.78732 48.1531 -0.0578398 72.5834 5.08079 80.9014C9.84259 88.5353 16.6504 91.8711 22.6422 88.1466" fill="white"/>
<path d="M17.9484 30.4565C10.3892 25.9508 5.64504 31.187 2.15161 38.2131C-2.78732 48.1531 -0.0578398 72.5834 5.08079 80.9014C9.84259 88.5353 16.6504 91.8711 22.6422 88.1466" stroke="black" stroke-width="4.99983" stroke-linecap="round" stroke-linejoin="round"/>
<path d="M74.137 113.703C54.822 114.969 24.3412 97.1436 16.9663 75.7151C13.2749 64.6482 11.8937 39.6664 18.3214 30.7713C29.235 15.5361 43.554 7.74646 61.2423 4.0935C67.507 2.80616 74.6434 2.42032 80.556 2.71268C104.716 3.70948 122.762 11.1377 120.139 27.6485C139.981 32.4652 135.573 63.0668 120.456 63.3786C138.158 78.7773 122.052 101.635 101.003 92.5403C98.3201 96.0242 94.19 112.382 74.137 113.703Z" fill="white" stroke="black" stroke-width="4.99983" stroke-linecap="round" stroke-linejoin="round"/>
<path d="M119.714 60.8248C104.382 56.155 98.0451 58.1621 93.8272 58.0515C103.556 60.7393 106.092 61.1611 116.214 64.7848C117.935 65.4032 119.679 66.2212 121.615 68.0712L122.642 60.5284C123.011 60.4725 120.843 60.9882 119.714 60.8248Z" fill="black"/>
<path d="M122.025 25.6322C112.785 23.8724 101.224 22.7562 93.6147 24.7723C98.71 25.6653 111.73 28.8493 119.429 30.04C119.426 30.0559 119.414 30.0249 122.025 25.6322Z" fill="black"/>
<path d="M27.4363 42.4536C39.3225 37.3547 42.7701 37.3909 48.7855 35.8243" stroke="black" stroke-width="4.99983" stroke-linecap="round" stroke-linejoin="round"/>
<path d="M26.701 54.0121C40.8345 51.7732 47.8548 52.0264 57.3275 51.3921" stroke="black" stroke-width="4.99983" stroke-linecap="round" stroke-linejoin="round"/>
<path d="M26.2365 67.8293C36.0831 67.6009 40.7703 68.4065 46.9313 68.8932" stroke="black" stroke-width="4.99983" stroke-linecap="round" stroke-linejoin="round"/>
<path d="M102.227 95.3339C81.5191 90.7688 73.4631 97.1271 63.0453 101.41C73.8087 94.9577 77.4076 86.3066 101.592 90.1036L102.227 95.3339Z" fill="black"/>
</svg>
