<svg width="189" height="163" viewBox="0 0 140 117" fill="none" xmlns="http://www.w3.org/2000/svg">
<path d="M118.531 85.5861C126.137 90.0122 130.826 84.7264 134.245 77.6639C139.079 67.6726 136.093 43.2723 130.867 35.0088C126.026 27.4254 119.183 24.1613 113.231 27.9486" fill="white"/>
<path d="M118.531 85.5861C126.137 90.0122 130.826 84.7264 134.245 77.6639C139.079 67.6726 136.093 43.2723 130.867 35.0088C126.026 27.4254 119.183 24.1613 113.231 27.9486" stroke="black" stroke-width="4.99983" stroke-linecap="round" stroke-linejoin="round"/>
<path d="M61.4704 2.9347C80.7709 1.46543 111.437 18.9699 119.037 40.3197C122.845 51.3472 124.488 76.3131 118.155 85.2753C107.402 100.624 93.1653 108.564 75.5163 112.403C69.2655 113.756 62.1336 114.217 56.2182 113.986C32.0494 113.244 13.9264 106.005 16.3755 89.468C-3.51598 84.8601 0.569762 54.2139 15.683 53.7432C-2.18007 38.5314 13.6846 15.506 34.8285 24.3787C37.4744 20.8668 41.4323 4.46658 61.4704 2.9347Z" fill="white" stroke="black" stroke-width="4.99983" stroke-linecap="round" stroke-linejoin="round"/>
<path d="M16.4518 56.2891C31.8319 60.7975 38.1474 58.7239 42.3661 58.7902C32.6095 56.2048 30.069 55.8096 19.9099 52.2925C18.1822 51.6922 16.4298 50.8926 14.4744 49.063L13.5271 56.6162C13.158 56.6761 15.321 56.1375 16.4518 56.2891Z" fill="black"/>
<path d="M14.5106 91.504C23.769 93.1666 35.3403 94.1612 42.9285 92.0653C37.824 91.2258 24.7715 88.1789 17.0604 87.0691C17.0625 87.0533 17.0755 87.0841 14.5106 91.504Z" fill="black"/>
<path d="M108.917 73.6895C97.0853 78.913 93.6375 78.913 87.6389 80.5427" stroke="black" stroke-width="4.99983" stroke-linecap="round" stroke-linejoin="round"/>
<path d="M109.531 62.1238C95.4219 64.5111 88.3994 64.3318 78.9338 65.0655" stroke="black" stroke-width="4.99983" stroke-linecap="round" stroke-linejoin="round"/>
<path d="M109.85 48.3025C100.007 48.6344 95.3112 47.8781 89.1455 47.4562" stroke="black" stroke-width="4.99983" stroke-linecap="round" stroke-linejoin="round"/>
<path d="M33.5745 21.5981C54.3297 25.9453 62.3184 19.5027 72.6906 15.1109C61.9956 21.6756 58.4879 30.364 34.2653 26.8214L33.5745 21.5981Z" fill="black"/>
</svg>
