<svg width="189" height="163" viewBox="0 0 189 117" fill="none" xmlns="http://www.w3.org/2000/svg">
<path d="M21.8417 86.0296C14.3002 90.5654 9.53522 85.348 6.01388 78.3356C1.03548 68.415 3.66812 43.9736 8.77382 35.6352C13.5054 27.9823 20.3001 24.6195 26.3067 28.3202" fill="white"/>
<path d="M21.8417 86.0296C14.3002 90.5654 9.53522 85.348 6.01388 78.3356C1.03548 68.415 3.66812 43.9736 8.77382 35.6352C13.5054 27.9823 20.3001 24.6195 26.3067 28.3202" stroke="black" stroke-width="4.99993" stroke-linecap="round" stroke-linejoin="round"/>
<path d="M77.7008 2.55922C58.3805 1.36945 27.97 19.3164 20.68 40.7744C17.0325 51.8561 15.7502 76.8437 22.2133 85.7134C33.1874 100.906 47.5375 108.638 65.2406 112.221C71.5105 113.484 78.6485 113.841 84.56 113.526C106.193 112.089 119.016 95.5109 124.044 88.4325C138.142 88.3068 155.12 89.852 171.071 92.2272C194.93 95.7804 189.143 62.3866 166.758 59.287C156.279 57.8363 147.691 55.3918 124.22 52.7006C136.902 48.9172 155.118 42.5365 167.69 40.4402C188.433 36.9838 176.219 7.18936 150.948 11.9487C133.739 15.1909 121.047 20.4442 104.651 23.6158C101.954 20.1424 97.7593 3.80092 77.7008 2.55922Z" fill="white" stroke="black" stroke-width="4.99993" stroke-linecap="round" stroke-linejoin="round"/>
<path d="M124.719 49.9427C109.108 53.5728 101.93 59.0061 98.2221 61.0215C107.99 58.4796 110.397 57.5755 120.974 55.6475C122.773 55.3214 124.916 55.2367 127.536 55.5504L124.719 49.9427Z" fill="black"/>
<path d="M123.939 85.9339C114.532 86.0234 103.227 88.3883 96.1604 91.8601C106.347 91.5542 114.388 91.3027 124.085 90.7851C124.085 90.7592 123.917 88.3697 123.934 85.9334L123.939 85.9339Z" fill="black"/>
<path d="M31.282 73.9948C43.1886 79.0466 46.6361 78.9968 52.6578 80.5395" stroke="black" stroke-width="4.99993" stroke-linecap="round" stroke-linejoin="round"/>
<path d="M30.5009 62.4391C44.6435 64.6219 51.6628 64.3409 61.1382 64.9376" stroke="black" stroke-width="4.99993" stroke-linecap="round" stroke-linejoin="round"/>
<path d="M29.9816 48.6236C39.8292 48.8129 44.5133 47.9887 50.6724 47.4776" stroke="black" stroke-width="4.99993" stroke-linecap="round" stroke-linejoin="round"/>
<path d="M105.864 20.8173C85.1739 25.4645 77.0926 19.1381 66.6577 14.8968C77.4468 21.3061 81.08 29.9431 105.249 26.0501L105.864 20.8173Z" fill="black"/>
</svg>
