<svg width="189" height="163" viewBox="0 0 189 119" fill="none" xmlns="http://www.w3.org/2000/svg">
<path d="M166.789 28.7468C174.135 23.9004 179.113 28.9146 182.924 35.774C188.312 45.4783 186.701 70.0083 181.947 78.5524C177.539 86.3959 170.89 90.0392 164.734 86.5922" fill="white"/>
<path d="M166.789 28.7468C174.135 23.9004 179.113 28.9146 182.924 35.774C188.312 45.4783 186.701 70.0083 181.947 78.5524C177.539 86.3959 170.89 90.0392 164.734 86.5922" stroke="black" stroke-width="4.99993" stroke-linecap="round" stroke-linejoin="round"/>
<path d="M114.459 114.474C133.812 114.857 163.448 95.6576 169.837 73.9142C173.019 62.69 173.258 37.6707 166.431 29.0782C154.833 14.357 140.173 7.2292 122.335 4.38775C116.018 3.38781 108.872 3.32826 102.978 3.89033C81.4238 6.2276 69.3032 23.3264 64.5748 30.6082C50.4952 31.3218 33.4669 30.486 17.4307 28.778C-6.55556 26.223 0.619388 59.3463 23.1139 61.5097C33.6442 62.5221 42.3271 64.6064 65.8898 66.3163C53.3764 70.6254 35.4426 77.7602 22.969 80.379C2.38744 84.6975 15.8336 113.957 40.8842 108.148C57.943 104.19 70.4053 98.4124 86.6547 94.5598C89.4938 97.9176 94.3666 114.07 114.459 114.474Z" fill="white" stroke="black" stroke-width="4.99993" stroke-linecap="round" stroke-linejoin="round"/>
<path d="M65.5059 69.0927C80.9521 64.8147 87.8977 59.0868 91.5178 56.9186C81.8642 59.8656 79.497 60.8693 69.0102 63.2367C67.2256 63.6375 65.0883 63.8116 62.4574 63.6074L65.5059 69.0927Z" fill="black"/>
<path d="M64.7846 33.1003C74.179 32.6186 85.3764 29.7842 92.2917 26.0208C82.1271 26.7511 74.1026 27.3379 64.4365 28.2594C64.4374 28.2852 64.7049 30.6657 64.7896 33.1005L64.7846 33.1003Z" fill="black"/>
<path d="M157.859 41.1648C145.752 36.614 142.309 36.8075 136.229 35.5173" stroke="black" stroke-width="4.99993" stroke-linecap="round" stroke-linejoin="round"/>
<path d="M159.121 52.6779C144.9 51.0868 137.898 51.6602 128.406 51.4593" stroke="black" stroke-width="4.99993" stroke-linecap="round" stroke-linejoin="round"/>
<path d="M160.216 66.4598C150.369 66.6813 145.723 67.7001 139.591 68.4676" stroke="black" stroke-width="4.99993" stroke-linecap="round" stroke-linejoin="round"/>
<path d="M85.5589 97.4065C106.038 91.9004 114.376 97.8843 124.978 101.687C113.931 95.7329 109.941 87.255 85.9552 92.1525L85.5589 97.4065Z" fill="black"/>
</svg>
